<?xml version="1.0" encoding="utf-8"?>
<!-- Generator: Adobe Illustrator 27.5.0, SVG Export Plug-In . SVG Version: 6.00 Build 0)  -->
<svg version="1.1" id="Layer_1" xmlns="http://www.w3.org/2000/svg" xmlns:xlink="http://www.w3.org/1999/xlink" x="0px" y="0px"
	 viewBox="0 0 613.5 230.9" style="enable-background:new 0 0 613.5 230.9;" xml:space="preserve">
<style type="text/css">
	.st0{fill: currentColor;}
	.st1{clip-path:url(#SVGID_00000093876089902077198650000012445617251328427160_);}
	.st2{clip-path:url(#SVGID_00000005261894433737226030000004837549405677097647_);}
	.st3{clip-path:url(#SVGID_00000029726032654496749740000013371307405982211496_);}
	.st4{clip-path:url(#SVGID_00000053520701112106666570000004716745441468197023_);}
	.st5{clip-path:url(#SVGID_00000156560493456426149780000006260728883609218228_);}
	.st6{clip-path:url(#SVGID_00000007398057700745162560000000453609000570554038_);}
	.st7{clip-path:url(#SVGID_00000008121065267732156700000016846769078919035057_);}
	.st8{clip-path:url(#SVGID_00000174584585349524663360000003882102088731489703_);}
	.st9{clip-path:url(#SVGID_00000132797598631721865370000007659643831622109090_);}
	.st10{clip-path:url(#SVGID_00000049206555226915285400000005369033767075391120_);}
</style>
<g>
	<g>
		<polygon  points="325.5,57.8 296.2,57.8 267.2,83.9 256.1,83.9 256.1,57.8 234.8,57.8 234.8,127.8 256.1,127.8 
			256.1,100.9 266.8,100.9 298.4,127.8 329.3,127.8 285.3,92.4 		"/>
		<rect x="369.2" y="57.8"  width="44.5" height="15.8"/>
		<polygon  points="357.1,100.4 410.5,100.4 410.5,84.7 357.1,84.7 357.1,57.8 336.2,57.8 336.2,127.8 414.4,127.8 
			414.4,112 357.1,112 		"/>
		<g>
			<path  d="M497.5,85.2c-3.6-0.2-13-0.5-14.9-0.5h-19.8c-6.9-0.1-7.3-0.2-8.6-0.5c-2.9-0.7-4.5-2.6-4.5-5.5
				c0-4,1.9-5,7.6-5h55.6V57.3h-41.4c-14.8,0-23.5,0.6-29.1,2c-10.1,2.4-13.6,7.8-13.6,20.4c0,9.6,2.3,15.1,7.3,17.7
				c4.5,2.3,9.9,3,22.8,3h19.3c7.3,0.1,11.8,0.4,13.3,0.8c2.2,0.7,3.6,2.1,3.6,4.9c0,5.6-2.9,5.8-24.9,5.8h-41.4v16.4h42.5
				c15.2,0,25.6-0.6,30.9-1.8c10.3-2.2,14.1-7.9,14.1-20.8C516.1,91.7,510.9,85.8,497.5,85.2"/>
			<polygon  points="613.5,57.8 530.8,57.8 530.8,73.7 582.3,73.7 529.5,111.8 529.5,127.8 613.4,127.8 613.4,112 
				560,112 613.5,73.9 			"/>
		</g>
	</g>
	<path  d="M250.4,163.3h4.1v7.9c-1.1,0.8-2.3,1.4-3.6,1.8c-1.4,0.4-2.8,0.6-4.2,0.6c-2,0-3.8-0.4-5.4-1.3
		c-1.6-0.9-2.9-2.1-3.8-3.6c-0.9-1.5-1.4-3.2-1.4-5.2s0.5-3.6,1.4-5.2c0.9-1.5,2.2-2.7,3.8-3.6c1.6-0.9,3.4-1.3,5.5-1.3
		c1.7,0,3.2,0.3,4.6,0.9c1.4,0.6,2.6,1.4,3.5,2.5l-2.9,2.7c-1.4-1.5-3.1-2.2-5-2.2c-1.2,0-2.3,0.3-3.3,0.8c-1,0.5-1.7,1.2-2.2,2.2
		c-0.5,0.9-0.8,2-0.8,3.2s0.3,2.3,0.8,3.2s1.3,1.7,2.2,2.2s2,0.8,3.2,0.8c1.3,0,2.4-0.3,3.5-0.8L250.4,163.3L250.4,163.3z"/>
	<path  d="M273,173.3l-3.7-5.4h-4.1v5.4h-4.5V154h8.4c1.7,0,3.2,0.3,4.5,0.9s2.2,1.4,2.9,2.4c0.7,1.1,1,2.3,1,3.7
		s-0.4,2.7-1,3.7c-0.7,1-1.7,1.8-3,2.4l4.4,6.2L273,173.3L273,173.3z M271.9,158.5c-0.7-0.6-1.7-0.9-3.1-0.9h-3.6v6.8h3.6
		c1.4,0,2.4-0.3,3.1-0.9s1-1.4,1-2.5S272.6,159.1,271.9,158.5"/>
	<path  d="M286.9,172.4c-1.6-0.9-2.9-2.1-3.8-3.6s-1.4-3.2-1.4-5.1s0.5-3.6,1.4-5.1s2.2-2.7,3.8-3.6
		c1.6-0.9,3.4-1.3,5.4-1.3s3.8,0.4,5.4,1.3c1.6,0.9,2.9,2.1,3.8,3.6s1.4,3.2,1.4,5.1s-0.5,3.6-1.4,5.1s-2.2,2.7-3.8,3.6
		c-1.6,0.9-3.4,1.3-5.4,1.3S288.5,173.2,286.9,172.4 M295.4,169.1c0.9-0.5,1.6-1.3,2.2-2.2c0.5-0.9,0.8-2,0.8-3.2s-0.3-2.3-0.8-3.2
		s-1.2-1.7-2.2-2.2s-2-0.8-3.1-0.8s-2.2,0.3-3.1,0.8s-1.6,1.3-2.2,2.2c-0.5,0.9-0.8,2-0.8,3.2s0.3,2.3,0.8,3.2s1.2,1.7,2.2,2.2
		s2,0.8,3.1,0.8S294.5,169.6,295.4,169.1"/>
	<path  d="M310.4,171.4c-1.5-1.5-2.3-3.7-2.3-6.6V154h4.5v10.7c0,3.5,1.4,5.2,4.3,5.2c1.4,0,2.5-0.4,3.2-1.3
		s1.1-2.2,1.1-3.9V154h4.4v10.9c0,2.8-0.8,5-2.3,6.6s-3.7,2.3-6.5,2.3S311.9,172.9,310.4,171.4"/>
	<path  d="M344.9,154.8c1.3,0.6,2.2,1.4,2.9,2.4c0.7,1.1,1,2.3,1,3.7s-0.3,2.7-1,3.7c-0.7,1.1-1.7,1.9-2.9,2.4
		c-1.3,0.6-2.8,0.8-4.5,0.8h-3.9v5.3H332V154h8.4C342.1,154,343.6,154.2,344.9,154.8 M343.2,163.5c0.7-0.6,1-1.4,1-2.5
		s-0.4-1.9-1-2.5c-0.7-0.6-1.7-0.9-3.1-0.9h-3.6v6.7h3.6C341.5,164.4,342.5,164.1,343.2,163.5"/>
</g>
<g>
	<g>
		<defs>
			<rect id="SVGID_1_" width="200" height="230.9"/>
		</defs>
		<clipPath id="SVGID_00000072981777773781256070000008913339348553342087_">
			<use xlink:href="#SVGID_1_"  style="overflow:visible;"/>
		</clipPath>
		<g style="clip-path:url(#SVGID_00000072981777773781256070000008913339348553342087_);">
			<g>
				<g>
					<defs>
						<rect id="SVGID_00000040535437097852799990000005811897929434851971_" y="57.7" width="33.3" height="70.6"/>
					</defs>
					<clipPath id="SVGID_00000116212434586124154390000015735344003039721390_">
						<use xlink:href="#SVGID_00000040535437097852799990000005811897929434851971_"  style="overflow:visible;"/>
					</clipPath>
					<g style="clip-path:url(#SVGID_00000116212434586124154390000015735344003039721390_);">
						<polygon  points="0,57.7 33.3,77 33.3,128.3 0,109.1 						"/>
					</g>
				</g>
			</g>
			<g>
				<g>
					<defs>
						<rect id="SVGID_00000134941084979435867950000007463655414274354341_" x="122.2" y="32.1" width="77.8" height="44.9"/>
					</defs>
					<clipPath id="SVGID_00000153694215236482396840000001840358361766691491_">
						<use xlink:href="#SVGID_00000134941084979435867950000007463655414274354341_"  style="overflow:visible;"/>
					</clipPath>
					<g style="clip-path:url(#SVGID_00000153694215236482396840000001840358361766691491_);">
						<polygon  points="122.2,51.3 155.6,32.1 200,57.7 166.7,77 						"/>
					</g>
				</g>
			</g>
			<g>
				<g>
					<defs>
						<rect id="SVGID_00000093156025986221065720000004453244638747272324_" x="100" y="166.8" width="44.4" height="64.2"/>
					</defs>
					<clipPath id="SVGID_00000093859894689916800280000002567020375916264578_">
						<use xlink:href="#SVGID_00000093156025986221065720000004453244638747272324_"  style="overflow:visible;"/>
					</clipPath>
					<g style="clip-path:url(#SVGID_00000093859894689916800280000002567020375916264578_);">
						<polygon  points="100,230.9 100,192.4 144.4,166.8 144.4,205.3 						"/>
					</g>
				</g>
			</g>
			<g>
				<g>
					<defs>
						<rect id="SVGID_00000082329903613476955400000003249439344658598072_" width="133.3" height="77"/>
					</defs>
					<clipPath id="SVGID_00000080203026283849614480000017335130408243680917_">
						<use xlink:href="#SVGID_00000082329903613476955400000003249439344658598072_"  style="overflow:visible;"/>
					</clipPath>
					<g style="clip-path:url(#SVGID_00000080203026283849614480000017335130408243680917_);">
						<polygon  points="100,0 0,57.7 33.3,77 133.3,19.2 						"/>
					</g>
				</g>
			</g>
			<g>
				<g>
					<defs>
						<rect id="SVGID_00000022527991639034308340000005951471477461484949_" x="166.7" y="57.7" width="33.3" height="134.7"/>
					</defs>
					<clipPath id="SVGID_00000013185436604048228200000015428250938320194749_">
						<use xlink:href="#SVGID_00000022527991639034308340000005951471477461484949_"  style="overflow:visible;"/>
					</clipPath>
					<g style="clip-path:url(#SVGID_00000013185436604048228200000015428250938320194749_);">
						<polygon  points="166.7,77 166.7,192.4 200,173.2 200,57.7 						"/>
					</g>
				</g>
			</g>
			<g>
				<g>
					<defs>
						<rect id="SVGID_00000125567795177543503910000004357295458545894795_" y="134.7" width="100" height="96.2"/>
					</defs>
					<clipPath id="SVGID_00000058566134530361213810000011037917123465109384_">
						<use xlink:href="#SVGID_00000125567795177543503910000004357295458545894795_"  style="overflow:visible;"/>
					</clipPath>
					<g style="clip-path:url(#SVGID_00000058566134530361213810000011037917123465109384_);">
						<polygon  points="0,173.2 100,230.9 100,192.4 0,134.7 						"/>
					</g>
				</g>
			</g>
			<g>
				<g>
					<defs>
						<rect id="SVGID_00000029012570544981338570000005340564743110969010_" x="55.6" y="64.2" width="88.9" height="51.3"/>
					</defs>
					<clipPath id="SVGID_00000084504302871137618680000013544907463239387564_">
						<use xlink:href="#SVGID_00000029012570544981338570000005340564743110969010_"  style="overflow:visible;"/>
					</clipPath>
					<g style="clip-path:url(#SVGID_00000084504302871137618680000013544907463239387564_);">
						<polygon  points="144.4,89.8 100,64.2 55.6,89.8 100,115.5 						"/>
					</g>
				</g>
			</g>
			<g>
				<g>
					<defs>
						<rect id="SVGID_00000106864242914425320110000003092144733095101582_" x="100" y="89.8" width="44.4" height="77"/>
					</defs>
					<clipPath id="SVGID_00000077311639013042886660000003641019303989578373_">
						<use xlink:href="#SVGID_00000106864242914425320110000003092144733095101582_"  style="overflow:visible;"/>
					</clipPath>
					<g style="clip-path:url(#SVGID_00000077311639013042886660000003641019303989578373_);">
						<polygon class="st0" points="100,115.5 100,166.8 144.4,141.1 144.4,89.8 						"/>
					</g>
				</g>
			</g>
			<g>
				<g>
					<defs>
						<rect id="SVGID_00000135672768569761776710000017490312093557593023_" x="55.6" y="89.8" width="44.4" height="77"/>
					</defs>
					<clipPath id="SVGID_00000155137404310400656330000002344926071463087295_">
						<use xlink:href="#SVGID_00000135672768569761776710000017490312093557593023_"  style="overflow:visible;"/>
					</clipPath>
					<g style="clip-path:url(#SVGID_00000155137404310400656330000002344926071463087295_);">
						<polygon class="st0" points="55.6,89.8 55.6,141.1 100,166.8 100,115.5 						"/>
					</g>
				</g>
			</g>
		</g>
	</g>
</g>
</svg>
