<svg xmlns="http://www.w3.org/2000/svg" xmlns:xlink="http://www.w3.org/1999/xlink" viewBox="0 0 1200 1200"><defs><style>.cls-1{fill:url(#linear-gradient);}</style><linearGradient id="linear-gradient" x1="130" y1="600" x2="1070" y2="600" gradientUnits="userSpaceOnUse"><stop offset="0" stop-color="#a4e5fc"/><stop offset="0.07" stop-color="#8dd6f7"/><stop offset="0.21" stop-color="#64bbf0"/><stop offset="0.36" stop-color="#43a5e9"/><stop offset="0.51" stop-color="#2995e4"/><stop offset="0.66" stop-color="#1789e1"/><stop offset="0.82" stop-color="#0c81df"/><stop offset="1" stop-color="#087fde"/></linearGradient></defs><g id="Layer_1" data-name="Layer 1"><path class="cls-1" d="M1070,687.36l-.24-68.18.1-.23L937.31,559.26V528.05l-.34.21.1-.24L847,484.12,933.1,433l.78-101.93.07-.1-.07,0v-.07l-.07,0L797.59,278.19,652.78,354.11l-99.65-46.86-422.79,212-.24-.1v.24l-.1,0,.1.21.61,92.72,404.93,237,10.49-5.63.17,10.79,121.86,67.13v.17ZM915.46,535.5l-233.28,126-119.85-63,234.91-120.6ZM798.34,299.82l112.49,43.55L535.52,544.89,434,490.45ZM540.57,733,163.36,527,558.5,328.51l78.38,36.84L416.45,480.93v19l-32.89,17.69L660,668.82Zm18.73,40.39L934.22,574.79,1045,624.68,670.61,830.41Z"/></g></svg>