<?xml version="1.0" encoding="UTF-8"?>
<svg id="Réteg_1" data-name="Réteg 1" xmlns="http://www.w3.org/2000/svg" viewBox="0 0 24 24">
  <path d="m11.1,16.5h1.8v-5.4h-1.8v5.4Zm.9-7.2c.26,0,.47-.09.64-.26.17-.17.26-.39.26-.64s-.09-.47-.26-.64c-.17-.17-.39-.26-.64-.26s-.47.09-.64.26-.26.39-.26.64.09.47.26.64.39.26.64.26Zm0,11.7c-1.25,0-2.42-.24-3.51-.71s-2.05-1.11-2.86-1.92-1.45-1.76-1.92-2.86-.71-2.26-.71-3.51.24-2.41.71-3.51,1.11-2.05,1.92-2.86,1.76-1.45,2.86-1.92,2.26-.71,3.51-.71,2.41.24,3.51.71,2.05,1.11,2.86,1.92,1.45,1.76,1.92,2.86.71,2.27.71,3.51-.24,2.42-.71,3.51-1.11,2.05-1.92,2.86-1.76,1.45-2.86,1.92-2.27.71-3.51.71Zm0-1.8c2.01,0,3.71-.7,5.11-2.09s2.09-3.1,2.09-5.11-.7-3.71-2.09-5.11-3.1-2.09-5.11-2.09-3.71.7-5.11,2.09-2.09,3.1-2.09,5.11.7,3.71,2.09,5.11,3.1,2.09,5.11,2.09Z"/>
</svg>