<?xml version="1.0" encoding="UTF-8"?>
<svg id="Réteg_1" data-name="Réteg 1" xmlns="http://www.w3.org/2000/svg" viewBox="0 0 24 24">
  <defs>
    <style>
      .cls-1 {
        fill: #e05858;
      }

      .cls-2 {
        fill: none;
      }
    </style>
  </defs>
  <path class="cls-2" d="m17.27,11.64l-.96-.95-.66.88-4.09-.28,4.01-2.34,1.02.54.67-1.47,1.24,1.2.06-4.86-5.75,2.89-1.52-.3-3.95,1.81-1.89,4.11s.02.02.04.02h1.62s.06-.04.09-.06c.4-.29.95-.68,1.95-.68s1.55.39,1.95.68c.03.02.06.04.09.06h1.62s.06-.04.09-.06c.4-.29.95-.68,1.95-.68s1.55.39,1.95.68c.03.02.06.04.09.06h1.62s.02-.02.04-.03l-.04-2.17-1.23.95Z"/>
  <path d="m3.45,13.04v-.1s0,.06,0,.1Z"/>
  <path class="cls-1" d="m5.44,12.89h.05s-.02-.02-.04-.02v.02Z"/>
  <g>
    <g>
      <path d="m9.86,12.02c-.35,0-.65-.12-.9-.36s-.37-.53-.37-.86h2.55c0,.34-.12.62-.37.86s-.55.36-.9.36Z"/>
      <path d="m20.8,11.69c.09-.22.14-.46.14-.71l.06-4.89c0-.7-.37-1.36-.99-1.73-.34-.2-.73-.31-1.12-.31-.32,0-.65.07-.94.21l-5.4,2.59-.89-.17c-.13-.03-.27-.04-.41-.04-.3,0-.6.06-.87.18l-4.15,1.82c-.46.2-.83.55-1.04.99l-2,4.15s-.02.07-.03.11c-.11.26-.16.53-.15.8v1c.13,0,.24.01.33.03.22.05.38.15.61.31.31.21.7.48,1.29.61.22.05.47.08.76.08s.53-.03.76-.08c.59-.13.99-.39,1.3-.61.33-.23.5-.34.95-.34s.61.11.95.34c.31.21.7.48,1.3.61.22.05.47.08.76.08s.53-.03.76-.08c.6-.13.99-.39,1.3-.61.33-.23.5-.34.95-.34s.61.11.95.35c.31.21.7.47,1.3.6.22.05.47.08.76.08s.53-.03.76-.08c.6-.13.99-.39,1.3-.6.23-.16.39-.26.6-.31.1-.02.21-.04.35-.04l-.05-3.31c0-.25-.06-.48-.15-.7Zm-1.96-.73l-1.34-1.95-.67,2.22-1.03-1.5-4.08,3.04,4.39-.09,1.04.76.77-.89.9-.97.06,3.02s-.03.02-.04.03c-.27.18-.46.28-.85.28s-.58-.1-.85-.28c-.03-.02-.06-.04-.1-.06-.42-.29-1-.69-2.05-.69s-1.63.4-2.05.69c-.03.02-.06.04-.09.06-.27.18-.45.28-.85.28s-.58-.1-.85-.28c-.03-.02-.06-.04-.09-.06-.42-.29-1-.69-2.05-.69s-1.63.4-2.05.69c-.03.02-.06.04-.09.06-.27.18-.45.28-.85.28s-.58-.1-.85-.28h-.05v-.03s2-4.13,2-4.13l4.15-1.82,1.6.3,6.05-2.9-.06,4.89Z"/>
    </g>
    <path d="m17.99,19.94c-1.06,0-1.63-.4-2.05-.69-.33-.23-.5-.35-.95-.35s-.61.11-.95.34c-.42.29-1,.69-2.05.69s-1.63-.4-2.05-.69c-.33-.23-.5-.34-.95-.34s-.61.11-.95.34c-.42.29-1,.69-2.05.69s-1.63-.4-2.05-.69c-.33-.23-.5-.34-.94-.34v-1.81c1.05,0,1.63.4,2.05.69.33.23.5.34.94.34s.61-.11.94-.34c.42-.29,1-.69,2.05-.69s1.63.4,2.05.69c.33.23.5.34.94.34s.61-.11.95-.35c.42-.29,1-.69,2.05-.69s1.63.4,2.05.69c.33.23.5.35.95.35s.61-.11.95-.35c.42-.29,1-.69,2.05-.69v1.81c-.45,0-.61.11-.95.35-.42.29-1,.69-2.05.69Z"/>
  </g>
</svg>